<svg xmlns="http://www.w3.org/2000/svg" viewBox="0 0 2048 2048" role="img">
<title>Daun Merah</title>
<path d="M 0 0 L 336.495 0 L 1707.84 0 L 2048 0 L 2048 343.545 L 2048 1703.88 L 2048 2048 L 1707.64 2048 L 340.112 2048 L 0 2048 L 0 1705.87 L 0 344.441 L 0 0 z" fill="rgb(10,10,10)"></path>
<path d="M 2048 1703.88 L 2048 2048 L 1707.64 2048 C 1720.5 2045.34 1737.93 2044.37 1753.12 2041.34 C 1806.42 2030.62 1856.69 2008.25 1900.33 1975.83 C 1968.65 1924.77 2017.17 1851.62 2037.62 1768.82 C 2043.74 1743.98 2044.32 1728.25 2048 1703.88 z" fill="rgb(245,230,200)"></path>
<path d="M 0 1705.87 C 3.32173 1731.95 5.31207 1749.98 12.1918 1775.9 C 33.2361 1853.83 79.0641 1922.8 142.757 1972.4 C 187.453 2006.6 239.345 2030.19 294.504 2041.38 C 309.31 2044.33 328.07 2045.43 340.112 2048 L 0 2048 L 0 1705.87 z" fill="rgb(245,230,200)"></path>
<path d="M 0 0 L 336.495 0 C 313.026 3.28176 294.471 5.74396 271.352 11.932 C 192.957 32.999 123.784 79.5162 74.7023 144.174 C 41.0905 188.95 17.8149 240.616 6.54805 295.459 C 3.76896 309.678 2.34932 334.325 0 344.441 L 0 0 z" fill="rgb(245,230,200)"></path>
<path d="M 1707.84 0 L 2048 0 L 2048 343.545 C 2045.53 330.575 2045.03 314.259 2042.13 298.978 C 2031.3 242.344 2007.5 188.987 1972.6 143.083 C 1918.19 70.4133 1830.81 18.2389 1741.28 4.38847 C 1730.18 2.67159 1718.97 1.58338 1707.84 0 z" fill="rgb(245,230,200)"></path>
<defs>
<clipPath id="leafClip">
<path d="M1024,300 C1210,460 1470,700 1470,1050 C1470,1400 1250,1650 1024,1780 C798,1650 578,1400 578,1050 C578,700 838,460 1024,300 Z"></path>
</clipPath>
</defs>
<path d="M1004,1758 L1024,1932 L1044,1758 Z" fill="rgb(159,158,153)"></path>
<g clip-path="url(#leafClip)">
<rect x="0" y="0" width="1024" height="2048" fill="rgb(13,77,77)"></rect>
<rect x="1024" y="0" width="1024" height="2048" fill="rgb(178,48,48)"></rect>
</g>
<g fill="none" stroke="rgb(245,230,200)" stroke-linecap="round" opacity="0.5">
<path d="M1042,620 Q1160,560 1230,520" stroke-width="7"></path>
<path d="M1044,830 Q1190,800 1290,730" stroke-width="7"></path>
<path d="M1028,1060 Q1190,1075 1300,1000" stroke-width="7"></path>
<path d="M1018,1290 Q1160,1320 1255,1265" stroke-width="7"></path>
<path d="M1006,720 Q890,680 815,630" stroke-width="7"></path>
<path d="M1008,940 Q860,940 750,870" stroke-width="7"></path>
<path d="M1013,1170 Q850,1195 735,1130" stroke-width="7"></path>
<path d="M1011,1400 Q890,1435 795,1385" stroke-width="7"></path>
</g>
<path d="M1024,1765 C1000,1300 1050,700 1024,330" fill="none" stroke="rgb(245,230,200)" stroke-width="15" stroke-linecap="round"></path>
</svg>
