<svg xmlns="http://www.w3.org/2000/svg" viewBox="0 0 2048 2048" role="img">
<title>Daun Merah</title>
<path d="M 0 0 L 336.495 0 L 1707.84 0 L 2048 0 L 2048 343.545 L 2048 1703.88 L 2048 2048 L 1707.64 2048 L 340.112 2048 L 0 2048 L 0 1705.87 L 0 344.441 L 0 0 z" fill="rgb(10,10,10)"></path>
<path d="M 2048 1703.88 L 2048 2048 L 1707.64 2048 C 1720.5 2045.34 1737.93 2044.37 1753.12 2041.34 C 1806.42 2030.62 1856.69 2008.25 1900.33 1975.83 C 1968.65 1924.77 2017.17 1851.62 2037.62 1768.82 C 2043.74 1743.98 2044.32 1728.25 2048 1703.88 z" fill="rgb(245,230,200)"></path>
<path d="M 0 1705.87 C 3.32173 1731.95 5.31207 1749.98 12.1918 1775.9 C 33.2361 1853.83 79.0641 1922.8 142.757 1972.4 C 187.453 2006.6 239.345 2030.19 294.504 2041.38 C 309.31 2044.33 328.07 2045.43 340.112 2048 L 0 2048 L 0 1705.87 z" fill="rgb(245,230,200)"></path>
<path d="M 0 0 L 336.495 0 C 313.026 3.28176 294.471 5.74396 271.352 11.932 C 192.957 32.999 123.784 79.5162 74.7023 144.174 C 41.0905 188.95 17.8149 240.616 6.54805 295.459 C 3.76896 309.678 2.34932 334.325 0 344.441 L 0 0 z" fill="rgb(245,230,200)"></path>
<path d="M 1707.84 0 L 2048 0 L 2048 343.545 C 2045.53 330.575 2045.03 314.259 2042.13 298.978 C 2031.3 242.344 2007.5 188.987 1972.6 143.083 C 1918.19 70.4133 1830.81 18.2389 1741.28 4.38847 C 1730.18 2.67159 1718.97 1.58338 1707.84 0 z" fill="rgb(245,230,200)"></path>
<path d="M 831.768 1652.29 C 767.356 1614.26 706.042 1571.21 648.394 1523.55 C 506.859 1404.76 411.872 1258.76 396.057 1071.29 C 381.33 896.699 443.017 726.917 555.258 594.057 C 627.536 508.324 720.656 442.629 825.664 403.288 C 858.33 391.13 887.049 382.796 921.896 379.295 C 980.596 373.397 1019.42 407.615 1054.85 449.583 C 1112.78 518.553 1147.6 603.959 1154.41 693.766 C 1160.26 774.833 1139.36 855.582 1094.91 923.63 C 1079.3 947.37 1064.68 964.171 1046.28 985.359 C 1055.63 991.599 1058.75 995.607 1063.18 1005.43 C 1088.41 985.347 1115.9 969.389 1142.96 952.304 C 1204.05 913.571 1265.26 878.536 1315.06 824.954 C 1455.62 673.712 1346.31 497.286 1210 394.92 L 1211.56 392.813 C 1271.87 429.566 1330.42 467.707 1385.4 512.241 C 1506.63 610.452 1600.15 736.069 1637.49 889.092 C 1719.7 1226.01 1492.77 1580.16 1159.5 1662.97 C 1120.14 1672.75 1084.91 1674.26 1049.54 1651.2 C 976.129 1602.62 921.784 1501.11 902.568 1417.87 C 879.562 1318.79 896.58 1214.64 949.926 1128.04 C 965.343 1103.37 986.804 1078.93 1006.47 1057.44 C 996.1 1052.3 993.075 1049.97 987.083 1039.68 C 877.694 1125.17 688.139 1195.68 668.401 1351.98 C 653.958 1466.35 745.85 1586.71 833.626 1650.56 L 841.827 1656.22 L 839.746 1657.26 L 831.768 1652.29 z" fill="rgb(245,230,200)"></path>
<path d="M 1370.77 536.215 L 1367.91 532.228 L 1368.43 531.539 L 1372.3 534.385 C 1505.87 645.443 1607.93 797.302 1624.32 973.483 C 1638.72 1135.7 1588.25 1297.01 1483.98 1422.1 C 1393.02 1531.48 1267.18 1618.92 1123.08 1641.08 C 1095.86 1644.93 1066.71 1632.97 1046.97 1614.68 C 977.119 1549.96 931.675 1455.25 923.475 1360.77 C 910.552 1211.86 985.669 1096.93 1103.87 1014.17 C 1215.42 936.073 1369.97 867.368 1401.55 721.576 C 1407.9 692.213 1408.87 663.124 1404.49 633.58 L 1401.78 617.555 C 1403.37 621.059 1404.91 624.638 1406.47 628.165 C 1459.73 752.771 1460.3 866.36 1409.84 992.048 C 1367.31 1097.97 1271.05 1221.42 1179.97 1289.84 L 1180.29 1292.76 C 1185.13 1289.4 1189.94 1286 1194.72 1282.56 C 1321.94 1191.11 1440.44 1037.23 1466.37 879.272 C 1482.28 782.343 1462 690.921 1415.42 604.705 C 1402.69 581.15 1386.38 557.919 1370.77 536.215 z" fill="rgb(13,77,77)"></path>
<path d="M 682.717 1519.34 C 640.257 1483.44 594.868 1440.62 559.689 1398.04 C 481.515 1304.96 433.833 1190.11 423.101 1069.03 C 409.485 904.853 467.57 739.983 573.503 614.932 C 641.892 532.71 730.259 469.437 830.13 431.181 C 861.662 419.232 888.287 411.554 921.921 407.851 C 977.842 401.695 1014.35 441.753 1045.07 483.435 C 1091.4 545.241 1119.05 619.031 1124.73 696.065 C 1133.94 839.103 1059.99 949.879 947.843 1031.25 C 841.714 1108.26 694.318 1167.31 652.196 1302.89 C 643.056 1332.52 639.229 1363.54 640.89 1394.5 C 641.45 1403.43 643.045 1417.14 645.592 1425.74 L 643.793 1427.11 C 605.043 1337.94 587.75 1247.79 606.71 1151.74 C 629.628 1035.64 697.362 929.814 775.914 843.289 C 799.066 817.787 838.619 778.539 867.05 759.069 L 865.942 756.592 C 733.076 849.417 609.102 999.697 579.781 1162.57 C 557.59 1285.84 600.402 1405.66 672.048 1504.76 C 675.654 1509.75 678.773 1514.5 682.717 1519.34 z" fill="rgb(178,48,48)"></path>
<path d="M 1210 394.92 C 1204.67 391.207 1199.63 387.754 1194.87 383.318 C 1200.58 386.437 1206.05 389.348 1211.56 392.813 L 1210 394.92 z" fill="rgb(159,158,153)"></path>
<path d="M 865.942 756.592 C 871.782 751.968 878.296 748.315 884.341 743.812 C 887.369 742.301 890.887 739.75 894.024 738.777 C 894.91 738.503 892.962 740.472 894.403 739.166 C 889.312 743.778 881.432 747.709 875.989 752.273 C 872.778 754.965 869.89 756.974 867.05 759.069 L 865.942 756.592 z" fill="rgb(212,125,120)"></path>
<path d="M 645.592 1425.74 C 645.869 1426.78 647.391 1430.88 646.477 1432.05 C 645.413 1431.28 644.326 1428.3 643.793 1427.11 L 645.592 1425.74 z" fill="rgb(212,125,120)"></path>
<path d="M 841.827 1656.22 C 845.657 1658 847.976 1660.72 851.375 1663.62 C 847.159 1661.65 843.562 1659.97 839.746 1657.26 L 841.827 1656.22 z" fill="rgb(100,94,90)"></path>
</svg>
